<svg width="320" height="297" viewBox="0 0 320 297" fill="none" xmlns="http://www.w3.org/2000/svg">
<path d="M241.246 296.063C218.006 296.063 199.506 290.37 185.746 278.979C171.98 267.594 165.1 250.729 165.1 228.396V185.417H225.662V210.125C225.662 220.042 226.673 227.823 228.704 233.458C230.746 239.099 234.923 241.917 241.246 241.917C247.105 241.917 251.105 240 253.246 236.167C255.381 232.333 256.454 226.698 256.454 219.25V162.062C256.454 152.828 255.496 145.448 253.579 139.917C251.662 134.391 247.662 131.625 241.579 131.625C230.522 131.625 224.996 139.635 224.996 155.646H171.871V1.02081H310.267V55.5H227.017V96.4375C229.959 92.6042 233.912 89.4479 238.871 86.9583C243.829 84.4739 249.464 83.2291 255.787 83.2291C280.147 83.2291 296.777 91.8073 305.683 108.958C314.6 126.099 319.058 150.344 319.058 181.687C319.058 207.635 317.194 228.677 313.475 244.812C309.751 260.937 302.251 273.516 290.975 282.542C279.694 291.557 263.121 296.063 241.246 296.063Z" fill="currentColor"/>
<path d="M0.666667 278.125C0.666667 264.823 2.75 252.531 6.91667 241.25C11.0938 229.974 16.2292 219.828 22.3125 210.812C28.4062 201.786 36.4219 191.182 46.3542 179C56.5052 166.365 64.5677 155.646 70.5417 146.854C76.5104 138.052 81.5833 127.953 85.75 116.562C89.9271 105.177 92.0208 92.8281 92.0208 79.5208C92.0208 71.6198 90.8854 65.474 88.625 61.0833C86.375 56.6823 82.3177 54.4792 76.4583 54.4792C66.7604 54.4792 61.9167 63.1615 61.9167 80.5208V116.062H0.666667L0 98.125C0 76.0156 2.25 57.8542 6.75 43.6458C11.2604 29.4375 19.1562 18.6146 30.4375 11.1667C41.7135 3.72396 57.2812 0 77.1458 0C101.505 0 120.339 6.82813 133.646 20.4792C146.948 34.1198 153.604 53.4583 153.604 78.5C153.604 94.5156 151.401 109.01 147 121.979C142.609 134.953 137.198 146.286 130.771 155.979C124.339 165.677 115.823 177.063 105.229 190.146C97.5625 199.396 91.1875 207.635 86.1042 214.854C81.0313 222.078 76.4635 229.521 72.3958 237.188H151.583V292H0.666667V278.125Z" fill="currentColor"/>
</svg>
