<svg viewBox="0 0 409 463" fill="none" xmlns="http://www.w3.org/2000/svg">
<path d="M224.324 25.6206C222.326 28.5005 220.566 31.4298 219.018 34.3817C215.326 41.4196 205.638 41.9532 200.861 35.604C199.076 33.2307 196.952 31.1295 194.421 29.3735C181.218 20.21 164.237 14.5174 150.104 14.5174C134.307 14.5174 122.515 21.2355 116.899 33.4356C112.924 42.0696 111.426 49.2039 110.103 55.4975C108.087 65.0961 106.63 72.0308 96.7191 82.7411C91.7924 88.0654 81.099 96.0567 69.7765 104.518C38.1038 128.186 -1.31306 157.643 0.0335873 187.338C0.885987 206.135 7.67256 214.851 12.6282 221.215C17.4867 227.453 19.9245 230.585 16.0175 245.598C14.8652 250.025 13.546 254.69 12.1492 259.628C7.18457 277.178 1.55825 297.068 1.13048 315.135C0.583904 338.238 8.82754 354.611 25.6306 363.8L27.6332 364.894C61.4025 383.351 63.6982 385.527 62.7291 398.163C61.8186 410.025 68.4389 430.845 82.4996 446.067C92.7325 457.145 104.985 463 117.933 463C129.48 463 141.157 458.37 152.64 449.242C175.445 431.11 193.936 423.024 212.595 423.024C222.328 423.024 231.729 425.122 241.682 427.343L242.929 427.621C253.211 429.911 262.091 431.889 270.031 431.889C279.415 431.889 286.881 429.075 292.854 423.285C298.636 417.683 302.966 409.328 306.481 396.992C309.305 387.085 329.153 375.962 346.665 366.15C361.722 357.711 377.293 348.987 389.18 338.263C404.135 324.774 410.68 309.874 408.634 293.976C405.363 268.561 395.92 246.814 381.327 231.087C365.124 213.625 343.199 204.395 317.923 204.395C313.749 204.395 309.427 204.648 305.078 205.145C274.137 208.69 256.075 212.156 243.225 221.261C225.221 234.02 223.452 254.889 224.097 273.622C225.126 303.53 242.409 312.096 251.694 316.698L251.71 316.705C252.6 317.145 252.889 318.275 252.314 319.086C251.997 319.534 251.637 320.024 251.228 320.56C242.719 331.717 238.249 332.281 237.44 332.281C236.281 332.281 231.913 331.1 224.328 315.891C217.259 301.72 207.416 287.232 188.004 287.232C181.635 287.232 174.491 288.854 166.165 292.193C154.457 296.888 147.983 314.734 145.114 325.26C144.159 328.762 139.76 329.9 137.247 327.285C121.827 311.25 105.142 286.087 105.179 268.332C105.191 261.93 107.536 256.955 112.557 252.677C123.042 243.742 135.612 243.132 147.767 242.541C159.502 241.971 171.637 241.382 179.583 232.169C185.434 225.386 187.526 215.679 186.17 201.618C185.45 194.174 185.072 188.187 184.916 183.384C184.776 179.081 189.335 176.152 193.131 178.166C198.562 181.046 204.726 182.635 210.956 182.635C220.236 182.635 237.747 179.129 250.762 155.646L250.771 155.63C251.156 154.933 252.129 154.863 252.611 155.497C252.762 155.694 252.909 155.887 253.05 156.074C258.877 163.741 268.63 176.573 285.995 176.576H286C286.649 176.576 287.303 176.558 287.972 176.52C296.108 176.068 303.826 175.838 310.91 175.838C311.96 175.838 312.963 175.843 313.923 175.853C320.28 175.913 327.074 176.652 334.119 178.048C337.932 178.803 341.708 179.186 345.34 179.186C363.824 179.186 377.476 169.04 382.795 151.348C385.242 143.209 386.046 133.242 385.185 121.725C382.507 85.9292 378.068 60.9927 371.216 43.2487C362.347 20.2789 348.563 8.14227 330.251 7.17615C323.856 6.83888 316.494 5.48202 308.698 4.04627C297.899 2.05732 286.732 0 275.353 0C252.979 0 236.287 8.38007 224.324 25.6206Z" fill="#FF9CFF"/>
</svg>
