<svg width="203" height="211" viewBox="0 0 203 211" fill="none" xmlns="http://www.w3.org/2000/svg">
<path d="M68.0414 157.908C62.6048 159.106 66.0951 156.516 65.8102 152.624C65.5062 143.458 75.4322 160.479 68.0414 157.908ZM57.0017 134.25C57.0149 128.411 53.9328 127.193 60.9855 127.532C59.0453 129.289 57.6328 131.617 57.0017 134.25ZM55.4637 139.695C55.9904 138.713 56.3938 137.655 56.6607 136.543C56.2313 138.124 57.9336 140.878 55.4637 139.695ZM56.0957 165.488C56.1118 165.453 56.1268 165.419 56.0957 165.488C56.0887 165.386 56.1058 165.448 56.0957 165.488ZM48.4472 106.111C46.8952 101.135 54.641 100.359 57.8664 101.269C54.0712 101.502 50.7095 103.338 48.4472 106.111ZM60.9464 66.983C64.3825 57.1554 65.0738 73.0765 68.6844 77.589C55.0143 77.9601 57.5375 79.6908 60.9464 66.983ZM43.8152 120.193C35.0098 121.688 41.8589 115.522 45.5839 112.757C44.1643 116.428 49.4353 121.734 43.8152 120.193ZM35.1182 63.0266C25.136 61.4336 36.8277 60.3424 37.532 53.5108C43.5544 56.4766 35.691 58.0827 35.1182 63.0266ZM35.3489 91.1316C26.1251 91.4463 26.2796 99.0664 25.2984 87.6126C30.3357 90.8479 41.1998 83.248 35.3489 91.1316ZM27.1193 132.512C31.6068 131.256 30.2554 133.149 31.0129 136.737C30.0668 135.099 28.7576 133.649 27.1193 132.512ZM79.3257 53.192C82.3314 54.9781 85.7735 53.5269 85.7765 57.792C83.5122 55.3663 77.4596 57.3968 79.3257 53.192ZM91.5119 64.9958C92.9014 65.5056 92.5002 65.9129 91.805 66.9608C91.8662 66.459 91.0595 64.7252 91.5119 64.9958ZM126.496 39.8435C126.572 40.1935 126.659 40.5415 126.763 40.8834C125.796 40.5384 125.533 40.4861 126.496 39.8435ZM134.919 49.5001C136.998 49.479 136.485 54.5306 134.632 54.7066C135.384 53.3097 133.419 48.8102 134.919 49.5001ZM185.109 152.396C158.239 158.644 188.877 126.822 161.664 124.336C154.367 124.336 148.451 130.268 148.451 137.583C146.688 148.515 163.657 148.189 155.314 155.2C154.35 140.174 131.292 139.339 129.147 154.135C123.403 151.857 116.849 154.067 113.528 158.932C110.724 152.374 102.758 149.159 96.1197 152.156C96.0926 144.881 90.2177 138.989 82.9613 138.96C84.1602 130.288 76.1072 122.66 67.5446 124.313C73.7727 119.164 73.0503 107.977 66.2785 103.655C83.2492 103.82 75.0418 82.7632 78.7437 82.2503C83.7268 82.2534 88.0597 79.4928 90.313 75.4167C92.3446 91.1155 116.951 89.3384 116.584 73.3691C109.337 50.4123 109.281 70.8539 126.945 65.1114C126.111 71.6011 130.179 77.8635 136.658 79.5882C144.979 84.5282 152.892 68.8425 153.51 72.9759C145.507 80.8202 151.736 95.7476 163.077 95.3584C172.139 95.5475 178.78 85.8245 175.44 77.4321C178.682 72.4539 183.566 86.3022 191.653 82.6747C198.854 81.494 203.735 74.6815 202.553 67.4627C200.982 55.3321 183.535 52.4146 178.013 63.0869C175.744 57.1735 168.165 53.552 162.107 55.6016C163.65 49.0968 158.916 41.516 152.251 40.1633C153.829 33.6766 150.308 26.9053 143.901 24.5842C132.851 23.1773 131.943 28.3666 124.773 18.3771C114.36 17.2548 121.013 7.01085 111.885 2.05683C97.3197 -6.96116 83.4429 16.0781 98.2627 24.7602C108.673 25.8936 102.021 36.1265 111.148 41.0845C114.955 50.5722 105.391 40.812 98.6218 40.4017C98.3469 33.564 91.4247 27.4896 84.5154 28.2469C86.9141 22.3114 84.721 15.343 79.0738 11.9367C64.5268 2.91268 50.617 25.961 65.4518 34.6401C68.8026 37.5244 74.6897 34.4691 72.3311 39.8857C44.0097 42.1354 62.701 18.4184 40.2386 14.6329C26.7019 14.2095 22.1181 33.9259 34.156 39.6423C32.2508 39.1082 28.4375 35.7543 24.9031 36.3606C7.75078 36.1454 7.75882 63.1853 24.9864 62.8495C14.2718 64.6316 20.3835 81.1399 12.8011 78.667C-12.5567 80.2549 4.59365 118.645 22.6439 100.747C21.1089 109.987 4.76014 120.024 19.0091 130.162C6.47768 130.23 1.5347 148.522 12.7781 154.744C36.9982 164.243 25.8292 134.926 40.9448 146.37C34.3587 154.638 21.2254 168.587 38.3886 176.304C25.0476 180.835 28.6753 202.407 43.0817 201.93C57.5504 202.338 61.1178 180.774 47.6765 176.263C50.8176 176.361 55.5028 167.945 54.8266 171.153C54.5949 188.305 81.4936 188.367 81.2549 171.153C77.4235 164.208 88.1691 162.344 88.75 167.962C91.4266 178.52 106.477 180.858 112.295 171.83C117.277 180.924 131.306 181.274 114.082 183.859C96.9294 183.554 96.9433 210.639 114.084 210.348C124.557 205.379 144.815 206.667 142.464 189.573C136.443 172.868 126.432 186.401 137.399 168.792C143.425 171.287 150.99 168.349 153.808 162.689C154.075 165.583 155.269 168.206 157.092 170.259C140.421 167.025 135.592 193.306 152.27 196.3C160.69 198.102 168.793 190.836 168 182.268C186.344 192.869 214.922 157.077 185.109 152.396Z" fill="currentColor"/>
</svg>
