<svg viewBox="0 0 350 601" fill="currentColor" xmlns="http://www.w3.org/2000/svg">
<path d="M62.7463 303.942C62.7463 262.366 112.963 228.663 174.909 228.663C236.854 228.663 287.072 262.366 287.072 303.942C287.072 345.517 236.854 379.22 174.909 379.22C112.963 379.22 62.7463 345.517 62.7463 303.942ZM62.7463 136.85C62.7463 95.2747 112.963 61.5708 174.909 61.5708C220.718 61.5708 260.107 80.0044 277.523 106.421C280.05 109.965 282.06 113.856 283.512 117.966C285.834 124.001 287.072 130.328 287.072 136.85C287.072 178.424 236.854 212.128 174.909 212.128C112.963 212.128 62.7463 178.424 62.7463 136.85ZM54.0461 600.985C82.7633 600.308 105.865 576.371 105.535 547.691C105.534 547.605 105.533 547.518 105.532 547.431C105.338 535.609 99.5865 524.619 90.2197 517.386C73.1067 504.171 62.7463 486.911 62.7463 468.028C62.7463 426.452 112.963 392.749 174.909 392.749C236.854 392.749 287.072 426.452 287.072 468.028C287.072 486.83 276.798 504.021 259.815 517.214C250.426 524.508 244.663 535.552 244.468 547.428C244.467 547.516 244.466 547.603 244.465 547.69C244.134 576.37 267.236 600.308 295.953 600.985C325.68 601.686 350 577.833 350 548.309C350 530.891 341.534 515.451 328.488 505.86C315.861 496.577 308.224 482.007 308.224 466.349L308.224 465.527C308.224 456.187 311.027 447.241 316.043 439.656C318.574 435.828 321.982 432.676 325.839 430.186C340.377 420.802 350 404.476 350 385.905C350 385.698 349.993 385.493 349.99 385.287C350 384.686 350.002 384.084 349.992 383.478C349.695 365.805 340.529 350.157 326.778 340.805C320.488 336.527 315.335 330.733 312.254 323.784C309.633 317.872 308.224 311.408 308.224 304.76L308.224 303.124C308.224 287.859 315.708 273.647 328.1 264.709C341.593 254.978 350.294 239.034 349.992 221.074C349.983 220.491 349.959 219.912 349.93 219.333C349.976 218.433 350 217.529 350 216.618C350 198.907 341.248 183.242 327.828 173.691C315.475 164.9 308.224 150.619 308.224 135.473L308.224 134.029C308.224 118.844 315.404 104.445 327.795 95.641C341.461 85.9301 350.296 69.8818 349.992 51.7872C349.518 23.5542 326.408 0.479709 298.133 0.00760181C285.511 -0.203152 273.882 4.01348 264.7 11.2043C239.924 30.6078 209.654 41.7134 178.166 41.7134L172.572 41.7134C141.108 41.7134 110.357 31.3833 85.8692 11.6565C76.6018 4.1904 64.7518 -0.208205 51.8651 0.00759104C23.5901 0.480523 0.481093 23.555 0.00755084 51.788C-0.293018 69.747 8.40715 85.6903 21.8992 95.4218C34.2916 104.36 41.7762 118.572 41.7762 133.837L41.7762 134.658C41.7762 150.315 34.1393 164.886 21.5117 174.169C8.46513 183.759 9.81042e-05 199.2 9.73429e-05 216.618C9.7303e-05 217.529 0.0242062 218.434 0.0696468 219.333C0.0406856 219.912 0.0174922 220.492 0.00754344 221.075C-0.293025 239.034 8.40714 254.977 21.8992 264.709C34.2916 273.647 41.7762 287.859 41.7762 303.125L41.7762 304.76C41.7762 314.128 38.9774 323.13 33.9355 330.735C31.4175 334.533 28.0391 337.668 24.2119 340.147C9.91251 349.413 0.310607 365.386 0.00753634 383.479C-0.00241242 384.085 -0.000764496 384.687 0.0100082 385.287C0.00753625 385.494 8.99521e-05 385.699 8.99431e-05 385.905C8.91313e-05 404.476 9.62188 420.802 24.1597 430.186C28.0175 432.676 31.4257 435.828 33.9571 439.656C38.9725 447.241 41.7762 456.187 41.7762 465.528L41.7762 467.164C41.7762 482.31 34.5243 496.592 22.1724 505.382C8.75161 514.933 8.36183e-05 530.599 8.28442e-05 548.309C8.15536e-05 577.834 24.3187 601.686 54.0461 600.985Z" fill="#E0FF00"/>
</svg>
