<svg width="453" height="446" viewBox="0 0 453 446" fill="none" xmlns="http://www.w3.org/2000/svg">
<path d="M339.667 139.541V139.21C339.667 123.907 352.277 111.5 367.832 111.5H424.834C440.39 111.5 453 99.0945 453 83.7911V83.4596C453 68.1563 440.39 55.7502 424.834 55.7502H424.5C408.945 55.7502 396.334 43.3442 396.334 28.0409V27.7115C396.334 12.4082 383.724 0 368.167 0H311.164C295.609 0 282.999 12.4082 282.999 27.7115V28.0409C282.999 43.3442 270.389 55.7502 254.834 55.7502H254.497C238.942 55.7502 226.331 43.3442 226.331 28.0409V27.7115C226.331 12.4082 213.721 0 198.166 0H141.163C125.606 0 112.998 12.4082 112.998 27.7115V28.0409C112.998 43.3442 100.386 55.7502 84.8306 55.7502C69.2757 55.7502 56.6656 68.1563 56.6656 83.4596V111.5H56.3306V195.292C56.3306 210.595 43.7201 223.001 28.165 223.001C12.6099 223.001 0 235.407 0 250.71V251.04C0 266.345 12.6099 278.751 28.165 278.751C43.7201 278.751 56.3306 291.155 56.3306 306.461V306.79C56.3306 322.095 43.7201 334.499 28.165 334.499C12.6099 334.499 0 346.905 0 362.209V362.54C0 377.844 12.6099 390.25 28.165 390.25H113.333V418.291C113.333 433.594 125.943 446 141.498 446H311.501C327.056 446 339.666 433.594 339.666 418.291V417.959C339.666 402.656 352.277 390.25 367.832 390.25H368.167C383.724 390.25 396.334 377.844 396.334 362.54V306.461C396.334 291.155 383.724 278.751 368.167 278.751H367.832C352.277 278.751 339.666 291.155 339.666 306.461V306.79C339.666 322.096 327.056 334.5 311.501 334.5H311.164C295.609 334.5 282.998 346.906 282.998 362.209V362.54C282.998 377.844 270.388 390.25 254.833 390.25H254.496C238.941 390.25 226.331 377.844 226.331 362.54V362.209C226.331 346.906 213.721 334.5 198.166 334.5C182.61 334.5 170 322.096 170 306.79V250.711C170 235.407 182.61 223.001 198.166 223.001C213.721 223.001 226.331 210.595 226.331 195.292V194.96C226.331 179.657 213.721 167.251 198.166 167.251C182.61 167.251 170 154.845 170 139.542V139.21C170 123.907 182.61 111.501 198.166 111.501H254.833C270.388 111.501 282.998 123.907 282.998 139.21V139.542C282.998 154.845 295.609 167.251 311.164 167.251H311.501C327.056 167.251 339.667 154.845 339.667 139.541Z" fill="currentColor"/>
</svg>
