<svg width="149" height="167" viewBox="0 0 149 167" fill="none" xmlns="http://www.w3.org/2000/svg">
<path d="M111.699 55.6741C110.051 55.6741 108.606 55.2932 107.369 54.5276C106.131 53.7621 105.169 52.7 104.478 51.342C103.788 49.9796 103.445 48.4146 103.445 46.6375C103.445 44.8604 103.788 43.2703 104.478 41.8995C105.169 40.5287 106.131 39.4586 107.369 38.6884C108.606 37.9186 110.046 37.5334 111.699 37.5334C112.708 37.5334 113.644 37.6815 114.508 37.9818C115.373 38.2782 116.135 38.6968 116.797 39.2342C117.457 39.7716 118 40.4104 118.415 41.1505C118.835 41.8952 119.106 42.7075 119.237 43.596L115.835 43.7737C115.737 43.2953 115.576 42.8597 115.356 42.4576C115.131 42.056 114.847 41.7133 114.5 41.4257C114.152 41.1377 113.75 40.9138 113.288 40.753C112.826 40.5923 112.305 40.5075 111.716 40.5075C110.707 40.5075 109.847 40.7657 109.136 41.2777C108.423 41.7939 107.886 42.5085 107.517 43.431C107.148 44.3531 106.962 45.4194 106.962 46.6332C106.962 47.8471 107.148 48.8799 107.517 49.7935C107.886 50.7117 108.423 51.4226 109.136 51.9298C109.847 52.4379 110.707 52.6916 111.716 52.6916C112.301 52.6916 112.822 52.6152 113.279 52.4545C113.737 52.298 114.131 52.074 114.47 51.7818C114.805 51.49 115.089 51.1388 115.318 50.7329C115.546 50.3266 115.712 49.8783 115.822 49.3918L119.258 49.5695C119.14 50.4577 118.869 51.2703 118.445 52.0062C118.021 52.7425 117.479 53.3854 116.818 53.9313C116.157 54.4767 115.39 54.9043 114.521 55.2088C113.653 55.5133 112.716 55.6656 111.703 55.6656L111.699 55.6741Z" fill="currentColor"/>
<path d="M37.7409 55.6741C36.0927 55.6741 34.6477 55.2932 33.4105 54.5276C32.1728 53.7621 31.2113 52.7 30.5204 51.342C29.83 49.9796 29.4863 48.4146 29.4863 46.6375C29.4863 44.8604 29.83 43.2703 30.5204 41.8995C31.2113 40.5287 32.1728 39.4586 33.4105 38.6884C34.6477 37.9186 36.0885 37.5334 37.7409 37.5334C38.7495 37.5334 39.686 37.6815 40.5504 37.9818C41.4147 38.2782 42.1773 38.6968 42.8386 39.2342C43.4994 39.7716 44.0417 40.4104 44.457 41.1505C44.8764 41.8952 45.1475 42.7075 45.279 43.596L41.8765 43.7737C41.779 43.2953 41.6179 42.8597 41.3977 42.4576C41.173 42.056 40.8892 41.7133 40.5419 41.4257C40.1941 41.1377 39.7916 40.9138 39.3297 40.753C38.8678 40.5923 38.3469 40.5075 37.7579 40.5075C36.7492 40.5075 35.8891 40.7657 35.1774 41.2777C34.4653 41.7939 33.9275 42.5085 33.5585 43.431C33.1899 44.3531 33.0033 45.4194 33.0033 46.6332C33.0033 47.8471 33.1899 48.8799 33.5585 49.7935C33.9275 50.7117 34.4653 51.4226 35.1774 51.9298C35.8891 52.4379 36.7492 52.6916 37.7579 52.6916C38.3427 52.6916 38.8635 52.6152 39.3212 52.4545C39.7789 52.298 40.1729 52.074 40.5122 51.7818C40.8468 51.49 41.1305 51.1388 41.3596 50.7329C41.5882 50.3266 41.7536 49.8783 41.8639 49.3918L45.3003 49.5695C45.1815 50.4577 44.9105 51.2703 44.4868 52.0062C44.0631 52.7425 43.5206 53.3854 42.8594 53.9313C42.1986 54.4767 41.4317 54.9043 40.5631 55.2088C39.6945 55.5133 38.758 55.6656 37.7452 55.6656L37.7409 55.6741Z" fill="currentColor"/>
<path d="M111.699 128.765C110.051 128.765 108.606 128.384 107.369 127.619C106.131 126.853 105.169 125.791 104.478 124.433C103.788 123.071 103.445 121.506 103.445 119.729C103.445 117.951 103.788 116.361 104.478 114.991C105.169 113.62 106.131 112.55 107.369 111.779C108.606 111.01 110.046 110.625 111.699 110.625C112.708 110.625 113.644 110.773 114.508 111.073C115.373 111.369 116.135 111.788 116.797 112.325C117.457 112.863 118 113.501 118.415 114.242C118.835 114.986 119.106 115.799 119.237 116.687L115.835 116.865C115.737 116.386 115.576 115.951 115.356 115.549C115.131 115.147 114.847 114.804 114.5 114.517C114.152 114.229 113.75 114.005 113.288 113.844C112.826 113.683 112.305 113.599 111.716 113.599C110.707 113.599 109.847 113.857 109.136 114.369C108.423 114.885 107.886 115.6 107.517 116.522C107.148 117.444 106.962 118.51 106.962 119.724C106.962 120.938 107.148 121.971 107.517 122.885C107.886 123.803 108.423 124.514 109.136 125.021C109.847 125.529 110.707 125.783 111.716 125.783C112.301 125.783 112.822 125.706 113.279 125.546C113.737 125.389 114.131 125.165 114.47 124.873C114.805 124.581 115.089 124.23 115.318 123.824C115.546 123.418 115.712 122.969 115.822 122.483L119.258 122.661C119.14 123.549 118.869 124.361 118.445 125.097C118.021 125.834 117.479 126.476 116.818 127.022C116.157 127.568 115.39 127.995 114.521 128.3C113.653 128.604 112.716 128.757 111.703 128.757L111.699 128.765Z" fill="currentColor"/>
<path d="M129.425 45.0554C127.777 45.0554 126.332 44.6745 125.095 43.909C123.857 43.1434 122.895 42.0814 122.204 40.7233C121.514 39.361 121.17 37.7959 121.17 36.0188C121.17 34.2417 121.514 32.6516 122.204 31.2808C122.895 29.91 123.857 28.8399 125.095 28.0697C126.332 27.2999 127.772 26.9148 129.425 26.9148C130.434 26.9148 131.37 27.0628 132.234 27.3631C133.099 27.6596 133.861 28.0782 134.522 28.6156C135.183 29.1529 135.726 29.7917 136.141 30.5318C136.561 31.2766 136.832 32.0888 136.963 32.9773L133.561 33.1546C133.463 32.6766 133.302 32.2411 133.082 31.839C132.857 31.4373 132.573 31.0946 132.226 30.8071C131.878 30.5191 131.476 30.2951 131.014 30.1344C130.552 29.9736 130.031 29.8888 129.442 29.8888C128.433 29.8888 127.573 30.1471 126.862 30.659C126.149 31.1748 125.611 31.8899 125.243 32.8124C124.874 33.7344 124.688 34.8007 124.688 36.0146C124.688 37.2284 124.874 38.2612 125.243 39.1748C125.611 40.093 126.149 40.8039 126.862 41.3112C127.573 41.8188 128.433 42.0729 129.442 42.0729C130.026 42.0729 130.548 41.9966 131.005 41.8358C131.463 41.6793 131.857 41.4554 132.196 41.1631C132.531 40.8713 132.815 40.5201 133.044 40.1142C133.272 39.708 133.438 39.2596 133.548 38.7731L136.984 38.9509C136.866 39.839 136.595 40.6516 136.171 41.3875C135.747 42.1238 135.205 42.7668 134.543 43.3126C133.883 43.8581 133.116 44.2856 132.247 44.5901C131.379 44.8947 130.442 45.0469 129.429 45.0469L129.425 45.0554Z" fill="currentColor"/>
<path d="M21.0628 45.0554C19.4147 45.0554 17.9697 44.6745 16.7325 43.909C15.4948 43.1434 14.5333 42.0814 13.8424 40.7233C13.1519 39.361 12.8083 37.7959 12.8083 36.0188C12.8083 34.2417 13.1519 32.6516 13.8424 31.2808C14.5333 29.91 15.4948 28.8399 16.7325 28.0697C17.9697 27.2999 19.4104 26.9148 21.0628 26.9148C22.0715 26.9148 23.008 27.0628 23.8723 27.3631C24.7367 27.6596 25.4993 28.0782 26.1605 28.6156C26.8213 29.1529 27.3638 29.7917 27.779 30.5318C28.1985 31.2766 28.4695 32.0888 28.601 32.9773L25.1986 33.1546C25.101 32.6766 24.9398 32.2411 24.7197 31.839C24.495 31.4373 24.2112 31.0946 23.8638 30.8071C23.5161 30.5191 23.1135 30.2951 22.6516 30.1344C22.1898 29.9736 21.669 29.8888 21.0799 29.8888C20.0713 29.8888 19.2112 30.1471 18.4995 30.659C17.7873 31.1748 17.2495 31.8899 16.8805 32.8124C16.512 33.7344 16.3258 34.8007 16.3258 36.0146C16.3258 37.2284 16.512 38.2612 16.8805 39.1748C17.2495 40.093 17.7873 40.8039 18.4995 41.3112C19.2112 41.8188 20.0713 42.0729 21.0799 42.0729C21.6647 42.0729 22.1856 41.9966 22.6432 41.8358C23.1009 41.6793 23.4949 41.4554 23.8342 41.1631C24.1688 40.8713 24.4525 40.5201 24.6815 40.1142C24.9102 39.708 25.0756 39.2596 25.1859 38.7731L28.6222 38.9509C28.5035 39.839 28.2325 40.6516 27.8088 41.3875C27.385 42.1238 26.8425 42.7668 26.1817 43.3126C25.5205 43.8581 24.7537 44.2856 23.8851 44.5901C23.0164 44.8947 22.0799 45.0469 21.0671 45.0469L21.0628 45.0554Z" fill="currentColor"/>
<path d="M129.425 140.572C127.777 140.572 126.332 140.192 125.095 139.426C123.857 138.66 122.895 137.598 122.204 136.24C121.514 134.878 121.17 133.313 121.17 131.536C121.17 129.759 121.514 128.168 122.204 126.798C122.895 125.427 123.857 124.357 125.095 123.587C126.332 122.817 127.772 122.432 129.425 122.432C130.434 122.432 131.37 122.58 132.234 122.88C133.099 123.176 133.861 123.595 134.522 124.133C135.183 124.67 135.726 125.309 136.141 126.049C136.561 126.794 136.832 127.606 136.963 128.494L133.561 128.672C133.463 128.194 133.302 127.758 133.082 127.356C132.857 126.954 132.573 126.612 132.226 126.324C131.878 126.036 131.476 125.812 131.014 125.651C130.552 125.491 130.031 125.406 129.442 125.406C128.433 125.406 127.573 125.664 126.862 126.176C126.149 126.692 125.611 127.407 125.243 128.329C124.874 129.252 124.688 130.318 124.688 131.532C124.688 132.746 124.874 133.778 125.243 134.692C125.611 135.61 126.149 136.321 126.862 136.828C127.573 137.336 128.433 137.59 129.442 137.59C130.026 137.59 130.548 137.514 131.005 137.353C131.463 137.196 131.857 136.972 132.196 136.68C132.531 136.388 132.815 136.037 133.044 135.631C133.272 135.225 133.438 134.777 133.548 134.29L136.984 134.468C136.866 135.356 136.595 136.168 136.171 136.905C135.747 137.641 135.205 138.284 134.543 138.83C133.883 139.375 133.116 139.802 132.247 140.107C131.379 140.412 130.442 140.564 129.429 140.564L129.425 140.572Z" fill="currentColor"/>
<path d="M17.6913 138.969C16.0431 138.969 14.5981 138.588 13.3609 137.823C12.1232 137.057 11.1613 135.995 10.4708 134.637C9.78035 133.275 9.43677 131.71 9.43677 129.933C9.43677 128.156 9.78035 126.565 10.4708 125.195C11.1613 123.824 12.1232 122.754 13.3609 121.984C14.5981 121.214 16.0388 120.829 17.6913 120.829C18.6999 120.829 19.6364 120.977 20.5007 121.277C21.3651 121.573 22.1277 121.992 22.7885 122.529C23.4497 123.067 23.9922 123.706 24.4074 124.446C24.8269 125.19 25.0979 126.003 25.2294 126.891L21.827 127.069C21.7294 126.591 21.5682 126.155 21.3481 125.753C21.1234 125.351 20.8396 125.008 20.4922 124.721C20.1445 124.433 19.7419 124.209 19.2801 124.048C18.8182 123.887 18.297 123.803 17.7083 123.803C16.6997 123.803 15.8396 124.061 15.1279 124.573C14.4157 125.089 13.878 125.804 13.509 126.726C13.1404 127.648 12.9537 128.715 12.9537 129.928C12.9537 131.142 13.1404 132.175 13.509 133.089C13.878 134.007 14.4157 134.717 15.1279 135.225C15.8396 135.733 16.6997 135.987 17.7083 135.987C18.2931 135.987 18.814 135.91 19.2716 135.75C19.7293 135.593 20.1233 135.369 20.4626 135.077C20.7972 134.785 21.0809 134.434 21.31 134.028C21.5386 133.622 21.7041 133.173 21.8143 132.687L25.2506 132.865C25.1319 133.753 24.8609 134.565 24.4372 135.301C24.0135 136.038 23.4709 136.681 22.8098 137.226C22.149 137.772 21.3821 138.199 20.5135 138.504C19.6444 138.808 18.7084 138.961 17.6956 138.961L17.6913 138.969Z" fill="currentColor"/>
<path d="M35.4152 128.351C33.767 128.351 32.322 127.97 31.0848 127.204C29.8471 126.438 28.8856 125.377 28.1947 124.018C27.5042 122.656 27.1606 121.091 27.1606 119.314C27.1606 117.537 27.5042 115.946 28.1947 114.576C28.8856 113.205 29.8471 112.135 31.0848 111.365C32.322 110.595 33.7628 110.21 35.4152 110.21C36.4238 110.21 37.3603 110.358 38.2246 110.658C39.089 110.954 39.8516 111.373 40.5128 111.911C41.1736 112.448 41.7161 113.087 42.1313 113.827C42.5507 114.572 42.8218 115.384 42.9532 116.273L39.5509 116.45C39.4533 115.972 39.2921 115.536 39.072 115.134C38.8473 114.732 38.5635 114.39 38.2162 114.102C37.8688 113.814 37.4659 113.59 37.004 113.43C36.5421 113.269 36.0213 113.184 35.4322 113.184C34.4235 113.184 33.5635 113.442 32.8518 113.954C32.1396 114.47 31.6014 115.185 31.2328 116.108C30.8643 117.03 30.6781 118.096 30.6781 119.31C30.6781 120.524 30.8643 121.556 31.2328 122.47C31.6014 123.388 32.1396 124.099 32.8518 124.606C33.5635 125.114 34.4235 125.368 35.4322 125.368C36.017 125.368 36.5383 125.292 36.9955 125.131C37.4536 124.974 37.8472 124.751 38.1865 124.458C38.5211 124.166 38.8049 123.815 39.0339 123.409C39.2625 123.003 39.4279 122.555 39.5382 122.068L42.9745 122.246C42.8558 123.134 42.5848 123.946 42.1611 124.683C41.7373 125.419 41.1949 126.062 40.5337 126.607C39.8729 127.153 39.106 127.581 38.2375 127.885C37.3688 128.19 36.4323 128.342 35.4195 128.342L35.4152 128.351Z" fill="currentColor"/>
<path d="M74.0559 60.1963C72.4077 60.1963 70.9627 59.8154 69.7255 59.0498C68.4883 58.2839 67.5263 57.2223 66.8354 55.8642C66.1449 54.5019 65.8018 52.9368 65.8018 51.1597C65.8018 49.3826 66.1449 47.7925 66.8354 46.4217C67.5263 45.0509 68.4883 43.9804 69.7255 43.2106C70.9627 42.4408 72.4035 42.0557 74.0559 42.0557C75.0645 42.0557 76.001 42.2037 76.8654 42.504C77.7297 42.8004 78.4923 43.2191 79.1535 43.7564C79.8143 44.2938 80.3568 44.9326 80.772 45.6727C81.1914 46.4175 81.4625 47.2297 81.5939 48.1182L78.1916 48.2955C78.094 47.8175 77.9328 47.3819 77.7127 46.9799C77.488 46.5782 77.2042 46.2355 76.8569 45.9479C76.5091 45.66 76.1065 45.436 75.645 45.2753C75.1827 45.1145 74.6619 45.0297 74.0728 45.0297C73.0642 45.0297 72.2041 45.2879 71.4924 45.7999C70.7802 46.3157 70.2425 47.0307 69.8735 47.9532C69.5049 48.8753 69.3187 49.9416 69.3187 51.1555C69.3187 52.3693 69.5049 53.4021 69.8735 54.3157C70.2425 55.2339 70.7802 55.9443 71.4924 56.452C72.2041 56.9601 73.0642 57.2138 74.0728 57.2138C74.6577 57.2138 75.1785 57.1374 75.6361 56.9767C76.0938 56.8202 76.4878 56.5962 76.8272 56.304C77.1618 56.0122 77.4455 55.661 77.6745 55.2551C77.9032 54.8488 78.0686 54.4005 78.1788 53.914L81.6152 54.0917C81.4965 54.9799 81.2254 55.7921 80.8017 56.5284C80.378 57.2647 79.8355 57.9077 79.1747 58.4535C78.5135 58.999 77.7467 59.4265 76.878 59.731C76.0094 60.0355 75.0729 60.1878 74.0601 60.1878L74.0559 60.1963Z" fill="currentColor"/>
<path d="M74.0559 38.9844C72.4077 38.9844 70.9627 38.6035 69.7255 37.8379C68.4883 37.0724 67.5263 36.0103 66.8354 34.6523C66.1449 33.2899 65.8018 31.7249 65.8018 29.9478C65.8018 28.1707 66.1449 26.5806 66.8354 25.2098C67.5263 23.839 68.4883 22.7689 69.7255 21.9987C70.9627 21.2289 72.4035 20.8438 74.0559 20.8438C75.0645 20.8438 76.001 20.9918 76.8654 21.292C77.7297 21.5885 78.4923 22.0071 79.1535 22.5445C79.8143 23.0819 80.3568 23.7206 80.772 24.4608C81.1914 25.2055 81.4625 26.0177 81.5939 26.9063L78.1916 27.084C78.094 26.6056 77.9328 26.17 77.7127 25.7684C77.488 25.3663 77.2042 25.0236 76.8569 24.736C76.5091 24.4484 76.1065 24.2241 75.645 24.0633C75.1827 23.9026 74.6619 23.8178 74.0728 23.8178C73.0642 23.8178 72.2041 24.076 71.4924 24.588C70.7802 25.1042 70.2425 25.8188 69.8735 26.7413C69.5049 27.6634 69.3187 28.7297 69.3187 29.9435C69.3187 31.1574 69.5049 32.1902 69.8735 33.1037C70.2425 34.022 70.7802 34.7328 71.4924 35.2401C72.2041 35.7482 73.0642 36.0018 74.0728 36.0018C74.6577 36.0018 75.1785 35.9255 75.6361 35.7648C76.0938 35.6083 76.4878 35.3843 76.8272 35.0921C77.1618 34.8003 77.4455 34.4491 77.6745 34.0432C77.9032 33.6369 78.0686 33.1886 78.1788 32.7021L81.6152 32.8798C81.4965 33.7679 81.2254 34.5806 80.8017 35.3165C80.378 36.0527 79.8355 36.6957 79.1747 37.2416C78.5135 37.787 77.7467 38.2146 76.878 38.5191C76.0094 38.8236 75.0729 38.9759 74.0601 38.9759L74.0559 38.9844Z" fill="currentColor"/>
<path d="M74.0559 18.1406C72.4077 18.1406 70.9627 17.7597 69.7255 16.9942C68.4883 16.2282 67.5263 15.1666 66.8354 13.8085C66.1449 12.4462 65.8018 10.8811 65.8018 9.10402C65.8018 7.3269 66.1449 5.73641 66.8354 4.36603C67.5263 2.99523 68.4883 1.92471 69.7255 1.15491C70.9627 0.38511 72.4035 0 74.0559 0C75.0645 0 76.001 0.148025 76.8654 0.448312C77.7297 0.744357 78.4923 1.16339 79.1535 1.70077C79.8143 2.23814 80.3568 2.87689 80.772 3.617C81.1914 4.36178 81.4625 5.17401 81.5939 6.06257L78.1916 6.23985C78.094 5.76186 77.9328 5.32626 77.7127 4.92418C77.488 4.52253 77.2042 4.17984 76.8569 3.89227C76.5091 3.60429 76.1065 3.38035 75.645 3.2196C75.1827 3.05885 74.6619 2.97402 74.0728 2.97402C73.0642 2.97402 72.2041 3.23228 71.4924 3.74379C70.7802 4.25996 70.2425 4.97505 69.8735 5.89754C69.5049 6.8196 69.3187 7.88587 69.3187 9.09974C69.3187 10.3136 69.5049 11.3464 69.8735 12.26C70.2425 13.1782 70.7802 13.8891 71.4924 14.3963C72.2041 14.904 73.0642 15.1581 74.0728 15.1581C74.6577 15.1581 75.1785 15.0817 75.6361 14.921C76.0938 14.7645 76.4878 14.5405 76.8272 14.2483C77.1618 13.9565 77.4455 13.6053 77.6745 13.1994C77.9032 12.7931 78.0686 12.3448 78.1788 11.8583L81.6152 12.036C81.4965 12.9242 81.2254 13.7364 80.8017 14.4727C80.378 15.2085 79.8355 15.8519 79.1747 16.3978C78.5135 16.9432 77.7467 17.3708 76.878 17.6753C76.0094 17.9798 75.0729 18.1321 74.0601 18.1321L74.0559 18.1406Z" fill="currentColor"/>
<path d="M74.0559 124.881C72.4077 124.881 70.9627 124.5 69.7255 123.735C68.4883 122.969 67.5263 121.907 66.8354 120.549C66.1449 119.187 65.8018 117.622 65.8018 115.845C65.8018 114.068 66.1449 112.477 66.8354 111.107C67.5263 109.736 68.4883 108.665 69.7255 107.896C70.9627 107.126 72.4035 106.741 74.0559 106.741C75.0645 106.741 76.001 106.889 76.8654 107.189C77.7297 107.485 78.4923 107.904 79.1535 108.442C79.8143 108.979 80.3568 109.618 80.772 110.358C81.1914 111.103 81.4625 111.915 81.5939 112.803L78.1916 112.981C78.094 112.503 77.9328 112.067 77.7127 111.665C77.488 111.263 77.2042 110.921 76.8569 110.633C76.5091 110.345 76.1065 110.121 75.645 109.96C75.1827 109.8 74.6619 109.715 74.0728 109.715C73.0642 109.715 72.2041 109.973 71.4924 110.485C70.7802 111.001 70.2425 111.716 69.8735 112.638C69.5049 113.56 69.3187 114.627 69.3187 115.841C69.3187 117.054 69.5049 118.087 69.8735 119.001C70.2425 119.919 70.7802 120.629 71.4924 121.137C72.2041 121.645 73.0642 121.899 74.0728 121.899C74.6577 121.899 75.1785 121.822 75.6361 121.662C76.0938 121.505 76.4878 121.281 76.8272 120.989C77.1618 120.697 77.4455 120.346 77.6745 119.94C77.9032 119.534 78.0686 119.086 78.1788 118.599L81.6152 118.777C81.4965 119.665 81.2254 120.477 80.8017 121.213C80.378 121.95 79.8355 122.593 79.1747 123.139C78.5135 123.684 77.7467 124.112 76.878 124.416C76.0094 124.721 75.0729 124.873 74.0601 124.873L74.0559 124.881Z" fill="currentColor"/>
<path d="M74.0559 145.543C72.4077 145.543 70.9627 145.163 69.7255 144.397C68.4883 143.631 67.5263 142.569 66.8354 141.211C66.1449 139.849 65.8018 138.284 65.8018 136.507C65.8018 134.73 66.1449 133.139 66.8354 131.769C67.5263 130.398 68.4883 129.328 69.7255 128.558C70.9627 127.788 72.4035 127.403 74.0559 127.403C75.0645 127.403 76.001 127.551 76.8654 127.851C77.7297 128.147 78.4923 128.566 79.1535 129.104C79.8143 129.641 80.3568 130.28 80.772 131.02C81.1914 131.765 81.4625 132.577 81.5939 133.465L78.1916 133.643C78.094 133.165 77.9328 132.729 77.7127 132.327C77.488 131.925 77.2042 131.583 76.8569 131.295C76.5091 131.007 76.1065 130.783 75.645 130.622C75.1827 130.462 74.6619 130.377 74.0728 130.377C73.0642 130.377 72.2041 130.635 71.4924 131.147C70.7802 131.663 70.2425 132.378 69.8735 133.3C69.5049 134.222 69.3187 135.289 69.3187 136.503C69.3187 137.716 69.5049 138.749 69.8735 139.663C70.2425 140.581 70.7802 141.292 71.4924 141.799C72.2041 142.307 73.0642 142.561 74.0728 142.561C74.6577 142.561 75.1785 142.485 75.6361 142.324C76.0938 142.167 76.4878 141.943 76.8272 141.651C77.1618 141.359 77.4455 141.008 77.6745 140.602C77.9032 140.196 78.0686 139.748 78.1788 139.261L81.6152 139.439C81.4965 140.327 81.2254 141.139 80.8017 141.876C80.378 142.612 79.8355 143.255 79.1747 143.801C78.5135 144.346 77.7467 144.774 76.878 145.078C76.0094 145.383 75.0729 145.535 74.0601 145.535L74.0559 145.543Z" fill="currentColor"/>
<path d="M74.0559 166.209C72.4077 166.209 70.9627 165.829 69.7255 165.063C68.4883 164.297 67.5263 163.235 66.8354 161.877C66.1449 160.515 65.8018 158.95 65.8018 157.173C65.8018 155.396 66.1449 153.806 66.8354 152.435C67.5263 151.064 68.4883 149.994 69.7255 149.224C70.9627 148.454 72.4035 148.069 74.0559 148.069C75.0645 148.069 76.001 148.217 76.8654 148.517C77.7297 148.814 78.4923 149.232 79.1535 149.77C79.8143 150.307 80.3568 150.946 80.772 151.686C81.1914 152.431 81.4625 153.243 81.5939 154.131L78.1916 154.309C78.094 153.831 77.9328 153.395 77.7127 152.993C77.488 152.591 77.2042 152.249 76.8569 151.961C76.5091 151.673 76.1065 151.449 75.645 151.288C75.1827 151.128 74.6619 151.043 74.0728 151.043C73.0642 151.043 72.2041 151.301 71.4924 151.813C70.7802 152.329 70.2425 153.044 69.8735 153.966C69.5049 154.889 69.3187 155.955 69.3187 157.169C69.3187 158.383 69.5049 159.415 69.8735 160.329C70.2425 161.247 70.7802 161.958 71.4924 162.465C72.2041 162.973 73.0642 163.227 74.0728 163.227C74.6577 163.227 75.1785 163.151 75.6361 162.99C76.0938 162.833 76.4878 162.609 76.8272 162.317C77.1618 162.025 77.4455 161.674 77.6745 161.268C77.9032 160.862 78.0686 160.414 78.1788 159.927L81.6152 160.105C81.4965 160.993 81.2254 161.806 80.8017 162.542C80.378 163.278 79.8355 163.921 79.1747 164.466C78.5135 165.012 77.7467 165.44 76.878 165.744C76.0094 166.049 75.0729 166.201 74.0601 166.201L74.0559 166.209Z" fill="currentColor"/>
<path d="M51.7582 69.7109C50.11 69.7109 48.665 69.3301 47.4278 68.5645C46.1902 67.7985 45.2282 66.7369 44.5377 65.3788C43.8472 64.0165 43.5037 62.4515 43.5037 60.6743C43.5037 58.8972 43.8472 57.3071 44.5377 55.9363C45.2282 54.5655 46.1902 53.495 47.4278 52.7252C48.665 51.9554 50.1058 51.5703 51.7582 51.5703C52.7668 51.5703 53.7029 51.7183 54.5677 52.0186C55.4321 52.3147 56.1946 52.7337 56.8554 53.2711C57.5167 53.8085 58.0591 54.4472 58.4743 55.1873C58.8938 55.9321 59.1648 56.7443 59.2963 57.6329L55.8939 57.8106C55.7963 57.3322 55.6352 56.8966 55.4151 56.4945C55.1903 56.0929 54.9065 55.7501 54.5592 55.4626C54.2114 55.1746 53.8089 54.9507 53.347 54.7899C52.8851 54.6292 52.3639 54.5443 51.7752 54.5443C50.7666 54.5443 49.9065 54.8026 49.1948 55.3146C48.4826 55.8307 47.9444 56.5454 47.5759 57.4679C47.2073 58.39 47.0206 59.4562 47.0206 60.6701C47.0206 61.884 47.2073 62.9167 47.5759 63.8303C47.9444 64.7486 48.4826 65.4594 49.1948 65.9667C49.9065 66.4744 50.7666 66.7284 51.7752 66.7284C52.3596 66.7284 52.8809 66.6521 53.3385 66.4913C53.7962 66.3348 54.1902 66.1109 54.5295 65.8187C54.8641 65.5269 55.1479 65.1757 55.3769 64.7698C55.6056 64.3635 55.771 63.9151 55.8812 63.4287L59.3176 63.6064C59.1988 64.4945 58.9278 65.3067 58.5041 66.043C58.0804 66.7793 57.5379 67.4223 56.8767 67.9682C56.2159 68.5136 55.4491 68.9411 54.5805 69.2457C53.7114 69.5502 52.7753 69.7024 51.7625 69.7024L51.7582 69.7109Z" fill="currentColor"/>
<path d="M95.9656 69.7109C94.3174 69.7109 92.8723 69.3301 91.6351 68.5645C90.3979 67.7985 89.436 66.7369 88.745 65.3788C88.0546 64.0165 87.7114 62.4515 87.7114 60.6743C87.7114 58.8972 88.0546 57.3071 88.745 55.9363C89.436 54.5655 90.3979 53.495 91.6351 52.7252C92.8723 51.9554 94.3131 51.5703 95.9656 51.5703C96.9742 51.5703 97.9107 51.7183 98.775 52.0186C99.6394 52.3147 100.402 52.7337 101.063 53.2711C101.724 53.8085 102.266 54.4472 102.682 55.1873C103.101 55.9321 103.372 56.7443 103.504 57.6329L100.101 57.8106C100.004 57.3322 99.8425 56.8966 99.6224 56.4945C99.3976 56.0929 99.1139 55.7501 98.7665 55.4626C98.4188 55.1746 98.0162 54.9507 97.5544 54.7899C97.0925 54.6292 96.5716 54.5443 95.9825 54.5443C94.9739 54.5443 94.1138 54.8026 93.4021 55.3146C92.69 55.8307 92.1522 56.5454 91.7832 57.4679C91.4146 58.39 91.2284 59.4562 91.2284 60.6701C91.2284 61.884 91.4146 62.9167 91.7832 63.8303C92.1522 64.7486 92.69 65.4594 93.4021 65.9667C94.1138 66.4744 94.9739 66.7284 95.9825 66.7284C96.5674 66.7284 97.0882 66.6521 97.5459 66.4913C98.0035 66.3348 98.3976 66.1109 98.7369 65.8187C99.0715 65.5269 99.3552 65.1757 99.5843 64.7698C99.8129 64.3635 99.9783 63.9151 100.089 63.4287L103.525 63.6064C103.406 64.4945 103.135 65.3067 102.711 66.043C102.288 66.7793 101.745 67.4223 101.084 67.9682C100.423 68.5136 99.6564 68.9411 98.7878 69.2457C97.9191 69.5502 96.9826 69.7024 95.9699 69.7024L95.9656 69.7109Z" fill="currentColor"/>
<path d="M51.7582 115.228C50.11 115.228 48.665 114.847 47.4278 114.081C46.1902 113.315 45.2282 112.254 44.5377 110.895C43.8472 109.533 43.5037 107.968 43.5037 106.191C43.5037 104.414 43.8472 102.823 44.5377 101.453C45.2282 100.082 46.1902 99.0116 47.4278 98.2418C48.665 97.472 50.1058 97.0869 51.7582 97.0869C52.7668 97.0869 53.7029 97.2349 54.5677 97.5352C55.4321 97.8317 56.1946 98.2503 56.8554 98.7877C57.5167 99.3251 58.0591 99.9638 58.4743 100.704C58.8938 101.449 59.1648 102.261 59.2963 103.149L55.8939 103.327C55.7963 102.849 55.6352 102.413 55.4151 102.012C55.1903 101.609 54.9065 101.267 54.5592 100.979C54.2114 100.691 53.8089 100.467 53.347 100.307C52.8851 100.146 52.3639 100.061 51.7752 100.061C50.7666 100.061 49.9065 100.319 49.1948 100.831C48.4826 101.347 47.9444 102.062 47.5759 102.985C47.2073 103.907 47.0206 104.973 47.0206 106.187C47.0206 107.401 47.2073 108.433 47.5759 109.347C47.9444 110.265 48.4826 110.976 49.1948 111.483C49.9065 111.991 50.7666 112.245 51.7752 112.245C52.3596 112.245 52.8809 112.169 53.3385 112.008C53.7962 111.851 54.1902 111.627 54.5295 111.335C54.8641 111.043 55.1479 110.692 55.3769 110.286C55.6056 109.88 55.771 109.432 55.8812 108.945L59.3176 109.123C59.1988 110.011 58.9278 110.823 58.5041 111.56C58.0804 112.296 57.5379 112.939 56.8767 113.485C56.2159 114.03 55.4491 114.458 54.5805 114.762C53.7114 115.067 52.7753 115.219 51.7625 115.219L51.7582 115.228Z" fill="currentColor"/>
<path d="M95.9656 115.228C94.3174 115.228 92.8723 114.847 91.6351 114.081C90.3979 113.315 89.436 112.254 88.745 110.895C88.0546 109.533 87.7114 107.968 87.7114 106.191C87.7114 104.414 88.0546 102.823 88.745 101.453C89.436 100.082 90.3979 99.0116 91.6351 98.2418C92.8723 97.472 94.3131 97.0869 95.9656 97.0869C96.9742 97.0869 97.9107 97.2349 98.775 97.5352C99.6394 97.8317 100.402 98.2503 101.063 98.7877C101.724 99.3251 102.266 99.9638 102.682 100.704C103.101 101.449 103.372 102.261 103.504 103.149L100.101 103.327C100.004 102.849 99.8425 102.413 99.6224 102.012C99.3976 101.609 99.1139 101.267 98.7665 100.979C98.4188 100.691 98.0162 100.467 97.5544 100.307C97.0925 100.146 96.5716 100.061 95.9825 100.061C94.9739 100.061 94.1138 100.319 93.4021 100.831C92.69 101.347 92.1522 102.062 91.7832 102.985C91.4146 103.907 91.2284 104.973 91.2284 106.187C91.2284 107.401 91.4146 108.433 91.7832 109.347C92.1522 110.265 92.69 110.976 93.4021 111.483C94.1138 111.991 94.9739 112.245 95.9825 112.245C96.5674 112.245 97.0882 112.169 97.5459 112.008C98.0035 111.851 98.3976 111.627 98.7369 111.335C99.0715 111.043 99.3552 110.692 99.5843 110.286C99.8129 109.88 99.9783 109.432 100.089 108.945L103.525 109.123C103.406 110.011 103.135 110.823 102.711 111.56C102.288 112.296 101.745 112.939 101.084 113.485C100.423 114.03 99.6564 114.458 98.7878 114.762C97.9191 115.067 96.9826 115.219 95.9699 115.219L95.9656 115.228Z" fill="currentColor"/>
<path d="M43.3471 92.467C41.6989 92.467 40.2539 92.0862 39.0167 91.3206C37.779 90.5546 36.8175 89.493 36.1266 88.1349C35.4361 86.7726 35.0925 85.2076 35.0925 83.4305C35.0925 81.6533 35.4361 80.0628 36.1266 78.6924C36.8175 77.3216 37.779 76.2516 39.0167 75.4813C40.2539 74.7115 41.6947 74.3264 43.3471 74.3264C44.3557 74.3264 45.2922 74.4744 46.1566 74.7747C47.0209 75.0708 47.7835 75.4898 48.4448 76.0272C49.1056 76.5646 49.6479 77.2033 50.0632 77.9434C50.4826 78.6882 50.7537 79.5004 50.8851 80.389L47.4827 80.5663C47.3852 80.0883 47.224 79.6527 47.0039 79.2506C46.7791 78.8489 46.4954 78.5063 46.1481 78.2187C45.8007 77.9307 45.3978 77.7068 44.9359 77.546C44.474 77.3853 43.9531 77.3004 43.3641 77.3004C42.3554 77.3004 41.4953 77.5587 40.7836 78.0707C40.0715 78.5864 39.5337 79.3015 39.1647 80.224C38.7961 81.1461 38.61 82.2123 38.61 83.4262C38.61 84.6401 38.7961 85.6728 39.1647 86.5864C39.5337 87.5047 40.0715 88.2155 40.7836 88.7228C41.4953 89.2305 42.3554 89.4845 43.3641 89.4845C43.9489 89.4845 44.4697 89.4082 44.9274 89.2474C45.3855 89.0909 45.7791 88.867 46.1184 88.5748C46.453 88.2829 46.7367 87.9318 46.9658 87.5259C47.1944 87.1196 47.3598 86.6712 47.4701 86.1848L50.9065 86.3625C50.7877 87.2506 50.5167 88.0632 50.0929 88.7991C49.6692 89.535 49.1267 90.1784 48.4659 90.7238C47.8047 91.2697 47.0379 91.6972 46.1693 92.0018C45.3002 92.3063 44.3642 92.4585 43.3514 92.4585L43.3471 92.467Z" fill="currentColor"/>
<path d="M25.8012 92.467C24.153 92.467 22.708 92.0862 21.4708 91.3206C20.2336 90.5546 19.2717 89.493 18.5807 88.1349C17.8903 86.7726 17.5471 85.2076 17.5471 83.4305C17.5471 81.6533 17.8903 80.0628 18.5807 78.6924C19.2717 77.3216 20.2336 76.2516 21.4708 75.4813C22.708 74.7115 24.1488 74.3264 25.8012 74.3264C26.8098 74.3264 27.7463 74.4744 28.6107 74.7747C29.4751 75.0708 30.2376 75.4898 30.8989 76.0272C31.5597 76.5646 32.1021 77.2033 32.5173 77.9434C32.9368 78.6882 33.2083 79.5004 33.3393 80.389L29.9369 80.5663C29.8394 80.0883 29.6782 79.6527 29.4581 79.2506C29.2333 78.8489 28.9495 78.5063 28.6022 78.2187C28.2548 77.9307 27.8519 77.7068 27.3904 77.546C26.9285 77.3853 26.4073 77.3004 25.8182 77.3004C24.8096 77.3004 23.9495 77.5587 23.2378 78.0707C22.5256 78.5864 21.9878 79.3015 21.6188 80.224C21.2503 81.1461 21.0641 82.2123 21.0641 83.4262C21.0641 84.6401 21.2503 85.6728 21.6188 86.5864C21.9878 87.5047 22.5256 88.2155 23.2378 88.7228C23.9495 89.2305 24.8096 89.4845 25.8182 89.4845C26.403 89.4845 26.9243 89.4082 27.382 89.2474C27.8396 89.0909 28.2336 88.867 28.5725 88.5748C28.9071 88.2829 29.1909 87.9318 29.4199 87.5259C29.6489 87.1196 29.814 86.6712 29.9242 86.1848L33.3605 86.3625C33.2418 87.2506 32.9708 88.0632 32.5471 88.7991C32.1233 89.535 31.5809 90.1784 30.9201 90.7238C30.2588 91.2697 29.492 91.6972 28.6234 92.0018C27.7547 92.3063 26.8182 92.4585 25.8055 92.4585L25.8012 92.467Z" fill="currentColor"/>
<path d="M8.25433 92.467C6.60615 92.467 5.16114 92.0862 3.92394 91.3206C2.68675 90.5546 1.72478 89.493 1.03386 88.1349C0.343415 86.7726 0.000244141 85.2076 0.000244141 83.4305C0.000244141 81.6533 0.343415 80.0628 1.03386 78.6924C1.72478 77.3216 2.68675 76.2516 3.92394 75.4813C5.16114 74.7115 6.60191 74.3264 8.25433 74.3264C9.26296 74.3264 10.1995 74.4744 11.0638 74.7747C11.9282 75.0708 12.6907 75.4898 13.352 76.0272C14.0128 76.5646 14.5552 77.2033 14.9705 77.9434C15.3899 78.6882 15.6614 79.5004 15.7924 80.389L12.39 80.5663C12.2925 80.0883 12.1313 79.6527 11.9112 79.2506C11.6864 78.8489 11.4026 78.5063 11.0553 78.2187C10.7079 77.9307 10.305 77.7068 9.84354 77.546C9.38166 77.3853 8.86039 77.3004 8.27131 77.3004C7.26268 77.3004 6.40259 77.5587 5.69089 78.0707C4.97873 78.5864 4.44096 79.3015 4.07197 80.224C3.70339 81.1461 3.51721 82.2123 3.51721 83.4262C3.51721 84.6401 3.70339 85.6728 4.07197 86.5864C4.44096 87.5047 4.97873 88.2155 5.69089 88.7228C6.40259 89.2305 7.26268 89.4845 8.27131 89.4845C8.85615 89.4845 9.37741 89.4082 9.8351 89.2474C10.2927 89.0909 10.6867 88.867 11.0256 88.5748C11.3602 88.2829 11.644 87.9318 11.873 87.5259C12.1021 87.1196 12.2671 86.6712 12.3773 86.1848L15.8137 86.3625C15.6949 87.2506 15.4239 88.0632 15.0002 88.7991C14.5764 89.535 14.034 90.1784 13.3732 90.7238C12.712 91.2697 11.9452 91.6972 11.0765 92.0018C10.2079 92.3063 9.27136 92.4585 8.25858 92.4585L8.25433 92.467Z" fill="currentColor"/>
<path d="M105.267 92.467C103.619 92.467 102.174 92.0862 100.937 91.3206C99.6989 90.5546 98.7374 89.493 98.0465 88.1349C97.356 86.7726 97.0125 85.2076 97.0125 83.4305C97.0125 81.6533 97.356 80.0628 98.0465 78.6924C98.7374 77.3216 99.6989 76.2516 100.937 75.4813C102.174 74.7115 103.615 74.3264 105.267 74.3264C106.276 74.3264 107.212 74.4744 108.076 74.7747C108.941 75.0708 109.703 75.4898 110.365 76.0272C111.025 76.5646 111.568 77.2033 111.983 77.9434C112.403 78.6882 112.674 79.5004 112.805 80.389L109.403 80.5663C109.305 80.0883 109.144 79.6527 108.924 79.2506C108.699 78.8489 108.415 78.5063 108.068 78.2187C107.72 77.9307 107.318 77.7068 106.856 77.546C106.394 77.3853 105.873 77.3004 105.284 77.3004C104.275 77.3004 103.415 77.5587 102.704 78.0707C101.991 78.5864 101.454 79.3015 101.085 80.224C100.716 81.1461 100.53 82.2123 100.53 83.4262C100.53 84.6401 100.716 85.6728 101.085 86.5864C101.454 87.5047 101.991 88.2155 102.704 88.7228C103.415 89.2305 104.275 89.4845 105.284 89.4845C105.869 89.4845 106.39 89.4082 106.847 89.2474C107.305 89.0909 107.699 88.867 108.038 88.5748C108.373 88.2829 108.657 87.9318 108.886 87.5259C109.114 87.1196 109.28 86.6712 109.39 86.1848L112.826 86.3625C112.708 87.2506 112.437 88.0632 112.013 88.7991C111.589 89.535 111.047 90.1784 110.386 90.7238C109.725 91.2697 108.958 91.6972 108.089 92.0018C107.22 92.3063 106.284 92.4585 105.271 92.4585L105.267 92.467Z" fill="currentColor"/>
<path d="M122.441 92.467C120.793 92.467 119.348 92.0862 118.11 91.3206C116.873 90.5546 115.911 89.493 115.22 88.1349C114.53 86.7726 114.187 85.2076 114.187 83.4305C114.187 81.6533 114.53 80.0628 115.22 78.6924C115.911 77.3216 116.873 76.2516 118.11 75.4813C119.348 74.7115 120.788 74.3264 122.441 74.3264C123.449 74.3264 124.386 74.4744 125.25 74.7747C126.115 75.0708 126.877 75.4898 127.539 76.0272C128.199 76.5646 128.742 77.2033 129.157 77.9434C129.576 78.6882 129.848 79.5004 129.979 80.389L126.577 80.5663C126.479 80.0883 126.318 79.6527 126.098 79.2506C125.873 78.8489 125.589 78.5063 125.242 78.2187C124.894 77.9307 124.492 77.7068 124.03 77.546C123.568 77.3853 123.047 77.3004 122.458 77.3004C121.449 77.3004 120.589 77.5587 119.877 78.0707C119.165 78.5864 118.628 79.3015 118.259 80.224C117.89 81.1461 117.704 82.2123 117.704 83.4262C117.704 84.6401 117.89 85.6728 118.259 86.5864C118.628 87.5047 119.165 88.2155 119.877 88.7228C120.589 89.2305 121.449 89.4845 122.458 89.4845C123.043 89.4845 123.564 89.4082 124.021 89.2474C124.479 89.0909 124.873 88.867 125.212 88.5748C125.547 88.2829 125.831 87.9318 126.06 87.5259C126.289 87.1196 126.454 86.6712 126.564 86.1848L130 86.3625C129.881 87.2506 129.611 88.0632 129.187 88.7991C128.763 89.535 128.221 90.1784 127.56 90.7238C126.898 91.2697 126.132 91.6972 125.263 92.0018C124.394 92.3063 123.458 92.4585 122.445 92.4585L122.441 92.467Z" fill="currentColor"/>
<path d="M141.167 92.467C139.518 92.467 138.073 92.0862 136.836 91.3206C135.599 90.5546 134.637 89.493 133.946 88.1349C133.256 86.7726 132.912 85.2076 132.912 83.4305C132.912 81.6533 133.256 80.0628 133.946 78.6924C134.637 77.3216 135.599 76.2516 136.836 75.4813C138.073 74.7115 139.514 74.3264 141.167 74.3264C142.175 74.3264 143.112 74.4744 143.976 74.7747C144.84 75.0708 145.603 75.4898 146.264 76.0272C146.925 76.5646 147.468 77.2033 147.883 77.9434C148.302 78.6882 148.574 79.5004 148.705 80.389L145.302 80.5663C145.205 80.0883 145.044 79.6527 144.823 79.2506C144.599 78.8489 144.315 78.5063 143.968 78.2187C143.62 77.9307 143.217 77.7068 142.755 77.546C142.294 77.3853 141.773 77.3004 141.184 77.3004C140.175 77.3004 139.315 77.5587 138.603 78.0707C137.891 78.5864 137.353 79.3015 136.984 80.224C136.616 81.1461 136.43 82.2123 136.43 83.4262C136.43 84.6401 136.616 85.6728 136.984 86.5864C137.353 87.5047 137.891 88.2155 138.603 88.7228C139.315 89.2305 140.175 89.4845 141.184 89.4845C141.768 89.4845 142.289 89.4082 142.747 89.2474C143.205 89.0909 143.599 88.867 143.938 88.5748C144.273 88.2829 144.556 87.9318 144.785 87.5259C145.014 87.1196 145.179 86.6712 145.29 86.1848L148.726 86.3625C148.607 87.2506 148.336 88.0632 147.913 88.7991C147.489 89.535 146.946 90.1784 146.286 90.7238C145.624 91.2697 144.857 91.6972 143.989 92.0018C143.12 92.3063 142.184 92.4585 141.171 92.4585L141.167 92.467Z" fill="currentColor"/>
</svg>
